# xmcd
#
# Track frame offsets: 
#        150
#        10231
#        20832
#        33986
#        44727
#        54498
#        64316
#        74815
#        86313
#        100393
#        110778
#        123907
#        132042
#        144000
#        154628
#        166566
#        178144
#        190666
#        203890
#        222439
#        233698
#        248208
#        259344
#        270912
#        285433
#        296287
#        307084
#        318450
#
# Disc length: 4413 seconds
#
# Revision: 5
# Processed by: cddbd v1.5.2PL0 Copyright (c) Steve Scherf et al.
# Submitted via: ExactAudioCopyFreeDBPlugin 1.0
#
DISCID=99113b1c
DTITLE=Various Artist - The Chess Story:  2120 South Michigan Ave., 1
DTITLE=947-1975 [box set]
DYEAR=1999
DGENRE=Rhythm and Blues
TTITLE0=Bo Diddley - Hey Bo Diddley
TTITLE1=Sonny Boy Williamson - Fattenin' Frogs for Snakes
TTITLE2=Lee Andrews and The Hearts - Long Lonely Nights
TTITLE3=Bo Diddley - Mona (I Need You Baby)
TTITLE4=Billy "Curley" Barrix - Cool Off Baby
TTITLE5=T.V. Slim - Flat Foot Sam
TTITLE6=The Tuneweavers - Happy, Happy Birthday Baby
TTITLE7=Chuck Berry - Rock and Roll Music
TTITLE8=Bo Diddley - Before You Accuse Me
TTITLE9=Al Kent - That's Why I Love You So
TTITLE10=Clifton Chenier - My Soul
TTITLE11=Billy Miranda - Go Ahead
TTITLE12=Sonny Boy Williamson - Ninety Nine
TTITLE13=The Monotones - Book of Love
TTITLE14=G.L. Crockett - Look Out Mabel
TTITLE15=Howlin' Wolf - Sittin' on Top of the World
TTITLE16=Jimmy McCracklin - The Walk
TTITLE17=Eddie Fontaine - Nothin' Shakin' (But the Leaves on the Trees
TTITLE17=)
TTITLE18=The Moonglows - Ten Commandments of Love (full version)
TTITLE19=The Kendall Sisters - Yea Yea
TTITLE20=Chuck Berry - Sweet Little Sixteen
TTITLE21=Dale Hawkins - Tornado
TTITLE22=Stanley Mitchell and The Tornados - Four O'Clock in the Morning
TTITLE23=Bo Diddley - Say Man
TTITLE24=Jimmy McCracklin - Everybody Rock (New Orleans Beat)
TTITLE25=Lula Reed - Anything to Say You're Mine
TTITLE26=Sonny Boy Williamson - Your Funeral and My Trial
TTITLE27=Howlin' Wolf - Moanin' for My Baby
EXTD=YEAR: 1999 ID3G:   0
EXTT0=
EXTT1=
EXTT2=
EXTT3=
EXTT4=
EXTT5=
EXTT6=
EXTT7=
EXTT8=
EXTT9=
EXTT10=
EXTT11=
EXTT12=
EXTT13=
EXTT14=
EXTT15=
EXTT16=
EXTT17=
EXTT18=
EXTT19=
EXTT20=
EXTT21=
EXTT22=
EXTT23=
EXTT24=
EXTT25=
EXTT26=
EXTT27=
PLAYORDER=
